<?xml version="1.0" encoding="UTF-8" standalone="no"?>
<!-- Created with Inkscape (http://www.inkscape.org/) -->

<svg
   width="33.844517mm"
   height="30.551508mm"
   viewBox="0 0 33.844517 30.551508"
   version="1.1"
   id="svg1"
   xml:space="preserve"
   xmlns="http://www.w3.org/2000/svg"
   xmlns:svg="http://www.w3.org/2000/svg"><defs
     id="defs1" /><g
     id="layer1"
     transform="translate(-15.027098,-38.421346)"><g
       id="g19"
       transform="translate(-28.142851,-77.075915)"><path
         style="display:inline;opacity:1;fill:#e2bc68;fill-opacity:1"
         d="m 76.013314,134.91226 c -1.456353,1.9353 -1.865361,2.12877 -3.745835,3.68985 -2.232133,3.19085 -5.707809,2.95259 -8.913009,1.21825 L 53.305526,129.71092 c -0.868677,0 -3.047931,2.31347 -3.047931,3.98643 l 9.295693,9.72438 c 6.77507,6.02403 16.728221,1.05922 16.460026,-8.50947 z"
         id="path11" /><path
         style="display:inline;opacity:1;fill:#58bfec;fill-opacity:1"
         d="m 58.145791,145.56427 0.82341,-0.28704 -1.855212,-1.82962 -1.855213,-1.82963 c -1.424485,0.19097 -5.333225,-0.35777 -6.573389,-3.89761 -1.986495,-7.41184 4.414468,-10.63707 9.072398,-12.26062 -1.102692,-1.39046 -2.806109,-2.74119 -4.639427,-3.48285 -18.023591,7.87418 -8.439259,25.13113 4.204005,23.87439 z"
         id="path13" /><path
         style="display:inline;opacity:1;fill:#e2bc68;fill-opacity:1"
         d="m 61.105512,116.26975 v 0.0816 0.0816 c 1.289338,1.21861 2.540377,2.47586 3.794446,3.73038 8.423962,-0.61738 10.900767,12.08663 -2.471535,15.95586 v 0.36799 c 1.389886,1.30871 2.766417,2.8291 4.774119,3.01423 19.228616,-7.89445 6.37411,-27.57918 -6.09703,-23.23166 z"
         id="path14" /><path
         style="display:inline;opacity:1;fill:#58bfec;fill-opacity:1"
         d="m 68.221455,130.90188 c 0.798227,-0.7513 1.332112,-1.49176 1.691969,-2.4949 -3.476113,-4.09876 -7.155165,-8.17102 -11.080195,-11.56315 -5.156964,-2.788 -9.833714,-0.99696 -13.041615,3.0808 -1.334221,2.00172 -1.997086,4.28451 -2.209884,6.63901 l 0.106563,0.17413 0.200191,0.0885 0.198562,-0.0547 c 1.719771,-2.48243 3.455325,-4.20809 5.600055,-5.24447 1.842524,-0.89035 3.987037,-0.99891 6.984581,0.29061 4.340121,4.01067 4.957614,5.05654 9.780318,10.2753 l 0.31086,0.34873 c 0.515448,-0.48451 0.979478,-1.02005 1.458595,-1.53983 z"
         id="path15" /></g></g></svg>
