<?xml version="1.0" encoding="UTF-8" standalone="no"?>
<!-- Created with Inkscape (http://www.inkscape.org/) -->

<svg
   width="111.72139mm"
   height="24.000006mm"
   viewBox="0 0 111.72139 24.000006"
   version="1.1"
   id="svg1"
   xml:space="preserve"
   xmlns="http://www.w3.org/2000/svg"
   xmlns:svg="http://www.w3.org/2000/svg"><defs
     id="defs1" /><g
     id="layer1"
     transform="translate(-58.897294,-91.346705)"><path
       d="M 121.90048,117.62058 H 117.728 l -7.66309,-9.61133 h -3.66919 v 9.61133 h -3.2146 V 93.446144 h 6.23438 q 2.07812,0 3.47436,0.227295 1.41248,0.227295 2.67884,1.055298 1.26635,0.811767 1.99694,2.09436 0.74683,1.282593 0.74683,3.182133 0,2.66259 -1.34753,4.44848 -1.34754,1.78589 -3.66919,2.64636 z m -6.94873,-17.37182 q 0,-1.055301 -0.37341,-1.867069 -0.37341,-0.828003 -1.15271,-1.347534 -0.68189,-0.45459 -1.59107,-0.633179 -0.90918,-0.194824 -2.25671,-0.194824 h -3.18213 v 9.124266 h 2.82495 q 1.38001,0 2.48401,-0.24353 1.10401,-0.24353 1.8833,-1.00659 0.69812,-0.68189 1.02283,-1.62354 0.34094,-0.94165 0.34094,-2.208 z m 29.58081,17.37182 h -3.2146 V 96.790627 l -6.29931,14.173463 h -1.94825 l -6.25061,-14.173463 v 20.829953 h -3.00354 V 93.446144 h 4.38355 l 6.03955,13.459106 5.82849,-13.459106 h 4.46472 z m 2.28919,0 8.15014,-24.174436 h 3.96143 l 8.15015,24.174436 h -3.39319 l -2.19178,-6.7539 h -9.23791 l -2.19177,6.7539 z m 13.78381,-9.49768 -3.73413,-11.397215 -3.7179,11.397215 z"
       id="text19"
       style="font-size:33.25px;font-family:Tahoma;-inkscape-font-specification:'Tahoma, Normal';fill:#4d4d4d;stroke-width:2.77082"
       transform="scale(1.0211585,0.9792799)"
       aria-label="RMA" /><path
       d="M 72.142639,96.303566 H 60.891541 v 6.818844 h 10.780273 v 2.85743 H 60.891541 v 11.64074 h -3.2146 V 93.446144 h 14.465698 z"
       id="text19-7"
       style="font-size:33.25px;font-family:Tahoma;-inkscape-font-specification:'Tahoma, Normal';fill:#4d4d4d;stroke-width:2.77082"
       transform="scale(1.0211585,0.9792799)"
       aria-label="F" /><g
       id="g27"
       transform="matrix(0.78934912,0,0,0.78934912,42.107193,0.05327605)"><path
         style="display:inline;opacity:1;fill:#e2bc68;fill-opacity:1"
         d="m 76.536194,134.97036 c -3.520056,4.13746 -8.048624,9.10277 -13.181724,4.85 L 53.305526,129.71092 c -0.868677,0 -3.047931,2.31347 -3.047931,3.98643 l 9.295693,9.72438 c 6.77507,6.02403 17.251101,1.11732 16.982906,-8.45137 z"
         id="path24" /><path
         style="display:inline;opacity:1;fill:#58bfec;fill-opacity:1"
         d="m 57.985446,144.31805 -3.898343,-4.14551 c -2.950803,-0.36571 -5.113943,-1.62786 -5.362651,-5.55877 -0.142838,-2.2576 0.718118,-3.97785 3.577672,-6.41459 1.179975,-1.0055 3.181886,-1.94689 5.455661,-2.73943 -0.975478,-1.68729 -3.145346,-3.58928 -4.639427,-3.48285 -10.177386,3.999 -10.956901,14.60536 -6.72692,19.8331 3.256874,4.0251 6.548279,4.14082 11.594008,2.50805 z"
         id="path25" /><path
         style="display:inline;opacity:1;fill:#e2bc68;fill-opacity:1"
         d="m 61.105512,116.26975 v 0.0816 0.0816 c 1.289338,1.21861 2.540377,2.47586 3.794446,3.73038 7.957043,0.49604 10.439433,12.13276 -2.932869,16.00199 1.314306,2.50747 2.583031,3.05701 5.235456,3.33609 18.104616,-7.64662 6.37411,-27.57918 -6.09703,-23.23166 z"
         id="path26" /><path
         style="display:inline;opacity:1;fill:#58bfec;fill-opacity:1"
         d="m 69.913424,128.40698 c -3.486745,-4.39762 -6.850998,-7.75484 -11.080195,-11.14696 -4.810141,-3.00141 -9.833714,-1.41315 -13.041615,2.66461 -1.334221,2.00172 -1.997086,4.28451 -2.209884,6.63901 l 0.106563,0.17413 0.200191,0.0885 0.198562,-0.0547 c 1.719771,-2.48243 3.455325,-4.20809 5.600055,-5.24447 1.842524,-0.89035 4.566893,-1.57547 6.984581,0.29061 4.340121,4.01067 4.957614,5.05654 9.780318,10.2753 l 0.31086,0.34873 c 1.334902,-1.11015 2.726171,-2.3659 3.150564,-4.03476 z"
         id="path27" /></g></g></svg>
